<svg width="198.904" height="198.986" viewBox="0 0 52.627 52.648" version="1.1" id="svg1" xmlns="http://www.w3.org/2000/svg"><style>@media (prefers-color-scheme:dark){path{fill:orange}@media (prefers-color-scheme:light){path{fill:red}}}</style><g id="layer1" transform="translate(-7.408 -4.763)"><path d="M21.843 56.827c-.557-.796-.518-1.423.13-2.07.45-.451.528-.817.463-2.183l-.079-1.642-3.347-.132c-2.858-.113-3.433-.21-3.939-.661-1.018-.91-1.313-2.038-1.313-5.019v-2.787H12.16c-1.237 0-1.778.133-2.395.59-.74.546-.848.56-1.51.188-.587-.33-.714-.587-.714-1.44 0-.851.127-1.109.714-1.438.662-.372.77-.358 1.51.188.617.456 1.158.59 2.395.59h1.598V31.75h-6.35v-1.323h6.35v-9.26h-6.35v-1.323h6.35v-2.787c0-2.981.295-4.109 1.313-5.018.506-.452 1.081-.549 3.94-.662l3.346-.132.079-1.642c.065-1.365-.013-1.732-.463-2.182-1.104-1.104-.37-2.658 1.256-2.658.55 0 .922.172 1.103.511.395.739.337 1.753-.123 2.134-.282.235-.396.855-.396 2.156v1.826l4.564-.073 4.564-.072.074-3.259c.073-3.195.086-3.257.661-3.175.566.08.59.205.662 3.331l.074 3.248 4.556-.073 4.556-.072.074-3.259c.073-3.195.086-3.257.662-3.175.565.08.59.205.661 3.325l.074 3.241h3.048c4.887 0 5.403.516 5.403 5.41v3.057h1.757c1.22 0 1.846-.117 2.05-.383.162-.21.61-.458.998-.552 1.353-.326 2.325 1.45 1.45 2.648-.459.627-1.975.659-2.42.05-.244-.334-.744-.44-2.078-.44h-1.757v9.244l3.24.074c3.04.07 3.242.107 3.242.604 0 .496-.201.533-3.241.603l-3.241.074v9.228l3.24.074c3.04.07 3.242.108 3.242.604s-.201.534-3.241.603l-3.241.075v3.047c0 4.886-.518 5.403-5.403 5.403h-3.048l-.074 3.241c-.071 3.12-.096 3.244-.661 3.325-.576.082-.589.02-.662-3.175l-.074-3.259-4.556-.072-4.556-.072-.074 3.247c-.072 3.126-.096 3.25-.662 3.33-.575.083-.588.021-.661-3.174l-.074-3.259-4.564-.072-4.564-.073v1.826c0 1.3.114 1.921.396 2.156.52.43.509 1.702-.019 2.23-.617.617-1.858.526-2.347-.173zm29.774-7.842c.487-.6.506-1.287.506-17.896 0-16.611-.02-17.296-.506-17.897l-.506-.624H16.358l-.638.742-.639.742v16.992c0 18.431-.045 17.839 1.418 18.44.311.127 8.227.208 17.59.179l17.023-.054zm-23.174-3.927c-.52-.281-1.31-.409-2.286-.37-1.34.055-1.59-.023-2.444-.774-.909-.798-1.613-2.41-1.433-3.282.043-.206-.337-.654-.842-.996-2.501-1.693-3.026-4.87-1.17-7.078l.677-.803-.532-.676c-1.168-1.485-.824-3.666.717-4.55.66-.38.759-.572.647-1.26-.173-1.065.304-2.79 1.023-3.704.773-.983 2.46-1.708 3.99-1.715 1.175-.005 1.256-.05 1.256-.694 0-.43.338-1.026.9-1.588.754-.754 1.09-.9 2.08-.9.795 0 1.41.18 1.879.55l.697.548.697-.549c.95-.747 2.944-.75 3.891-.005.38.299.827.998.994 1.554.299.999.32 1.012 1.888 1.154 2.696.244 4.435 2.142 4.436 4.84 0 1.175.087 1.39.684 1.71 1.432.766 1.852 2.87.889 4.45-.487.798-.502.935-.142 1.332 1.233 1.362 1.547 3.895.692 5.572-.506.991-1.767 2.128-2.362 2.128-.16 0-.29.429-.29.952 0 2.382-1.571 3.874-3.969 3.768-.968-.043-1.738.086-2.302.386-.465.248-1.28.45-1.812.45-1.097 0-2.743-.694-2.955-1.246-.114-.296-.254-.268-.703.14-1.315 1.195-3.297 1.466-4.795.656zm3.508-1.137c.04 0 .307-.387.596-.86.33-.543.524-1.331.525-2.137 0-1.07-.13-1.407-.803-2.082-.674-.673-.943-.777-1.654-.64-.92.178-1.775 1.01-1.775 1.727 0 .597-.507 1.073-.959.9-.474-.182-.465-1.237.019-2.174.769-1.487 2.657-2.162 4.22-1.51l.953.399v-8.97c0-6.14-.095-9.178-.301-9.63-.166-.364-.669-.79-1.118-.946-1.216-.424-2.16.346-2.136 1.745.01.565.11 1.234.226 1.488.322.709-.507.87-1.703.33a3.806 3.806 0 0 0-3.617.276c-.84.55-1.49 2.104-1.318 3.148.074.446.174 1.039.222 1.316.063.361-.21.66-.965 1.058-1.334.703-1.736 1.682-1.094 2.663.25.381.746.804 1.102.94.902.343.809.867-.306 1.718-2.405 1.833-1.95 5.299.814 6.211.886.293.9.323.851 1.71-.078 2.216 1.159 3.263 3.235 2.736.972-.247 1.174-.216 1.688.258.722.666 1.408.818 2.434.54.435-.118.824-.214.864-.214zm-3.218-13.076c-.442-1.057-1.103-1.476-2.33-1.476-.981 0-2.061-.624-2.061-1.19 0-.632.521-.726 1.484-.27.851.405.982.406 1.57.021.834-.546 1.08-1.543.563-2.281-.748-1.068.098-1.789.969-.827.685.758.816 1.978.315 2.947-.406.784-.407.893-.018 1.323.615.68.95 2.011.594 2.367-.469.469-.684.347-1.086-.614zm10.2 12.643c.417-.377.648-.401 1.458-.153.75.23 1.153.216 1.828-.066 1.116-.466 1.502-1.22 1.393-2.715-.064-.87.022-1.257.309-1.4.218-.11.744-.361 1.167-.56 2.335-1.095 2.274-4.95-.097-6.176-1.059-.548-1.02-1.1.111-1.573 1.673-.699 1.59-2.934-.128-3.498l-.92-.301.093-1.88c.093-1.841.076-1.898-.817-2.791-1.122-1.122-2.089-1.39-3.494-.97-2.384.714-2.362.715-2.155-.134.46-1.887.455-2.117-.047-2.738-.624-.77-1.938-.842-2.706-.147-.487.44-.532.81-.532 4.363 0 3.776.017 3.898.647 4.49 1.175 1.104 3.109.525 3.451-1.033.216-.981.597-1.251 1.082-.766.574.574.008 2.191-1.049 2.998-.932.71-2.247.866-3.452.408l-.68-.258v6.89c0 4.666.099 7.077.304 7.468.771 1.47 2.907 1.743 4.234.543zm.33-4.705c-.08-.207.046-.667.28-1.023.487-.745.219-1.855-.518-2.137-.68-.262-1.582-.2-1.913.13-.382.383-1.129.107-1.129-.417 0-.732 1.21-1.276 2.444-1.098.62.089 1.366.153 1.657.142l1.654-.061c.83-.03 1.27.105 1.685.52.31.31.481.693.382.853-.23.373-1.017.376-1.388.004-.158-.158-.567-.247-.909-.198-.558.08-.613.205-.538 1.227.052.722-.072 1.375-.341 1.786-.47.717-1.144.851-1.367.272z" id="path6" style="fill:#000"/></g></svg>