<?xml version="1.0" encoding="UTF-8" standalone="no"?>
<!-- Created with Inkscape (http://www.inkscape.org/) -->

<svg
   width="52.626671mm"
   height="52.648289mm"
   viewBox="0 0 52.62667 52.648289"
   version="1.1"
   id="svg1"
   inkscape:version="1.3.2 (091e20e, 2023-11-25, custom)"
   sodipodi:docname="logo.svg"
   xmlns:inkscape="http://www.inkscape.org/namespaces/inkscape"
   xmlns:sodipodi="http://sodipodi.sourceforge.net/DTD/sodipodi-0.dtd"
   xmlns="http://www.w3.org/2000/svg"
   xmlns:svg="http://www.w3.org/2000/svg"
   >
   <style>
    path {
        fill: black;
    }
    @media (prefers-color-scheme: dark) {
        path { fill: orange; }
    @media (prefers-color-scheme: light) {
        path { fill: red; }
    }
</style>
     <sodipodi:namedview
     id="namedview1"
     borderopacity="0.25"
     inkscape:showpageshadow="2"
     inkscape:pageopacity="0.0"
     inkscape:pagecheckerboard="0"
     inkscape:document-units="mm"
     inkscape:zoom="1.5471036"
     inkscape:cx="183.89202"
     inkscape:cy="127.98109"
     inkscape:window-width="1440"
     inkscape:window-height="837"
     inkscape:window-x="-8"
     inkscape:window-y="-8"
     inkscape:window-maximized="1"
     inkscape:current-layer="layer1" />
  <defs
     id="defs1" />
  <g
     inkscape:label="Layer 1"
     inkscape:groupmode="layer"
     id="layer1"
     transform="translate(-7.408335,-4.76253)">
    <path
       d="m 21.843129,56.82657 c -0.557158,-0.79545 -0.517896,-1.42261 0.129594,-2.0701 0.450596,-0.4506 0.528306,-0.81694 0.463021,-2.18281 l -0.07845,-1.64134 -3.346927,-0.13229 c -2.85807,-0.11297 -3.433424,-0.20959 -3.939121,-0.66146 -1.017941,-0.9096 -1.312911,-2.03712 -1.312911,-5.01859 v -2.78662 h -1.598214 c -1.23738,0 -1.778085,0.13298 -2.394906,0.58902 -0.739533,0.54676 -0.847916,0.56027 -1.510641,0.18829 -0.58613,-0.32898 -0.713947,-0.58657 -0.713947,-1.43877 0,-0.8522 0.127817,-1.10978 0.713947,-1.43877 0.662725,-0.37198 0.771108,-0.35847 1.510641,0.18829 0.616821,0.45604 1.157526,0.58902 2.394906,0.58902 h 1.598214 v -4.63021 -4.6302 h -3.175 -3.175 v -0.66146 -0.66146 h 3.175 3.175 V 25.7969 21.16669 h -3.175 -3.175 v -0.66145 -0.66146 h 3.175 3.175 v -2.78663 c 0,-2.98146 0.29497,-4.10898 1.312911,-5.01858 0.505697,-0.45188 1.081051,-0.54849 3.939121,-0.66146 l 3.346927,-0.13229 0.07845,-1.64134 c 0.06528,-1.36587 -0.01243,-1.73222 -0.463021,-2.18281 -1.103725,-1.10373 -0.369254,-2.65814 1.25599,-2.65814 0.549563,0 0.922241,0.17281 1.103646,0.51177 0.39512,0.73829 0.336668,1.75258 -0.122983,2.13406 -0.28262,0.23455 -0.396875,0.85504 -0.396875,2.15531 v 1.82594 l 4.564063,-0.0724 4.564067,-0.0724 0.0744,-3.25846 c 0.073,-3.19558 0.0858,-3.25686 0.66146,-3.175 0.56515,0.0804 0.5898,0.20448 0.66137,3.33082 l 0.0743,3.24736 4.55587,-0.0724 4.55587,-0.0724 0.0744,-3.25846 c 0.073,-3.19558 0.0858,-3.25686 0.66146,-3.175 0.56507,0.0803 0.5898,0.20467 0.66131,3.3246 l 0.0743,3.24115 h 3.04771 c 4.88712,0 5.40267,0.51633 5.40267,5.41082 v 3.05585 h 1.75677 c 1.22012,0 1.84651,-0.11682 2.05052,-0.3824 0.16157,-0.21031 0.61086,-0.45876 0.99843,-0.55209 1.35273,-0.32577 2.32502,1.45038 1.44944,2.64781 -0.45845,0.62697 -1.97452,0.65866 -2.41917,0.0506 -0.2449,-0.33493 -0.74493,-0.44098 -2.07922,-0.44098 h -1.75677 v 4.62207 4.62206 l 3.24115,0.0743 c 3.03999,0.0697 3.24115,0.10713 3.24115,0.60346 0,0.49632 -0.20116,0.53378 -3.24115,0.60345 l -3.24115,0.0743 v 4.61392 4.61393 l 3.24115,0.0743 c 3.03999,0.0697 3.24115,0.10713 3.24115,0.60345 0,0.49633 -0.20116,0.53378 -3.24115,0.60346 l -3.24115,0.0743 v 3.0477 c 0,4.88529 -0.51739,5.40268 -5.40267,5.40268 h -3.04771 l -0.0743,3.24114 c -0.0715,3.11994 -0.0962,3.24427 -0.66131,3.32461 -0.57571,0.0819 -0.58847,0.0206 -0.66146,-3.175 l -0.0744,-3.25846 -4.55587,-0.0724 -4.55587,-0.0724 -0.0743,3.24736 c -0.0716,3.12633 -0.0962,3.25047 -0.66137,3.33082 -0.5757,0.0819 -0.58846,0.0206 -0.66146,-3.175 l -0.0744,-3.25846 -4.564067,-0.0724 -4.564063,-0.0724 v 1.82593 c 0,1.30028 0.114255,1.92076 0.396875,2.15532 0.519145,0.43085 0.508366,1.70279 -0.0189,2.23006 -0.617132,0.61713 -1.858228,0.52605 -2.347348,-0.17227 z m 29.774112,-7.84179 c 0.4863,-0.6007 0.50568,-1.28632 0.50568,-17.89621 0,-16.61092 -0.0194,-17.29548 -0.50576,-17.89621 l -0.50576,-0.62462 H 33.734911 16.358418 l -0.638584,0.74235 -0.638583,0.74236 v 16.992 c 0,18.43067 -0.04553,17.83833 1.417372,18.43881 0.311852,0.12801 8.227339,0.20876 17.589968,0.17944 l 17.02297,-0.0533 z M 28.442709,45.05763 c -0.519039,-0.28087 -1.310183,-0.4085 -2.285937,-0.36875 -1.34021,0.0546 -1.589099,-0.0243 -2.443706,-0.77466 -0.908894,-0.79802 -1.612963,-2.41095 -1.432873,-3.28253 0.04241,-0.20522 -0.336786,-0.65328 -0.842646,-0.99567 -2.500646,-1.6926 -3.02546,-4.8709 -1.168673,-7.07756 L 20.944662,31.75533 20.4125,31.07879 c -1.167594,-1.48435 -0.823648,-3.66588 0.717417,-4.55033 0.660211,-0.37891 0.758868,-0.57109 0.647019,-1.26034 -0.1727,-1.06422 0.303792,-2.78832 1.023479,-3.70325 0.773044,-0.98277 2.459971,-1.70821 3.988649,-1.71528 1.175566,-0.005 1.25677,-0.0503 1.25677,-0.69373 0,-0.42956 0.337853,-1.02577 0.899584,-1.5875 0.754433,-0.75443 1.090203,-0.89958 2.080983,-0.89958 0.79456,0 1.40968,0.17956 1.87854,0.54837 l 0.69714,0.54837 0.69714,-0.54837 c 0.95048,-0.74765 2.94365,-0.75022 3.89102,-0.005 0.37993,0.29885 0.82698,0.99798 0.99346,1.55363 0.29934,0.9991 0.32021,1.01186 1.88792,1.15401 2.69655,0.24452 4.43548,2.14177 4.4363,4.84023 3.6e-4,1.17481 0.0867,1.39052 0.68444,1.71043 1.43122,0.76596 1.85127,2.86989 0.88833,4.44936 -0.4869,0.79864 -0.50135,0.93486 -0.14139,1.3326 1.23246,1.36186 1.54694,3.89487 0.69169,5.5713 -0.50591,0.99167 -1.76737,2.12841 -2.36194,2.12841 -0.15943,0 -0.28988,0.42849 -0.28988,0.9522 0,2.3819 -1.57136,3.87366 -3.96875,3.76772 -0.96817,-0.0428 -1.73861,0.0864 -2.30197,0.38601 -0.46571,0.24768 -1.28116,0.45032 -1.8121,0.45032 -1.09703,0 -2.74364,-0.69455 -2.9555,-1.24665 -0.11364,-0.29613 -0.25338,-0.26813 -0.70331,0.1409 -1.31429,1.19482 -3.29685,1.46566 -4.794832,0.65502 z m 3.507872,-1.13677 c 0.0395,0 0.30771,-0.38695 0.59607,-0.8599 0.33088,-0.54268 0.52465,-1.33101 0.52528,-2.13702 8.3e-4,-1.07069 -0.12902,-1.40713 -0.80336,-2.08147 -0.67317,-0.67316 -0.94287,-0.77759 -1.65365,-0.64031 -0.91914,0.17753 -1.775337,1.0101 -1.775337,1.72634 0,0.5975 -0.506868,1.07389 -0.958282,0.90067 -0.474706,-0.18216 -0.465621,-1.23722 0.01872,-2.17383 0.769001,-1.48708 2.657029,-2.16268 4.219449,-1.50986 l 0.95345,0.39838 v -8.96988 c 0,-6.14081 -0.0949,-9.17828 -0.30106,-9.63063 -0.16557,-0.3634 -0.66871,-0.7889 -1.11807,-0.94555 -1.216,-0.4239 -2.15885,0.34658 -2.135909,1.74542 0.0093,0.56463 0.110909,1.23395 0.225889,1.48739 0.32177,0.70924 -0.506786,0.87009 -1.703087,0.33063 -1.166834,-0.52616 -2.554756,-0.42048 -3.616806,0.2754 -0.839685,0.55018 -1.490153,2.10404 -1.317746,3.14787 0.0738,0.44682 0.173626,1.03918 0.221838,1.31636 0.06285,0.36133 -0.210185,0.66087 -0.964681,1.05833 -1.334212,0.70286 -1.736692,1.68201 -1.094354,2.66234 0.250017,0.38158 0.746007,0.80457 1.102198,0.94 0.902292,0.34305 0.808754,0.86736 -0.306494,1.718 -2.404389,1.83392 -1.94994,5.29947 0.814578,6.21185 0.885722,0.29231 0.900601,0.32218 0.851238,1.70878 -0.07892,2.21679 1.158588,3.26385 3.234685,2.73688 0.971905,-0.24669 1.173915,-0.21585 1.68769,0.25766 0.722537,0.66593 1.407991,0.81814 2.433971,0.54048 0.4356,-0.11788 0.8243,-0.21433 0.86378,-0.21433 z M 28.733243,30.84528 c -0.441955,-1.05775 -1.103042,-1.4765 -2.330935,-1.4765 -0.980564,0 -2.06064,-0.62374 -2.06064,-1.19002 0,-0.63135 0.521693,-0.72591 1.484456,-0.26905 0.851039,0.40385 0.982308,0.40556 1.569998,0.0205 0.834217,-0.5466 1.079831,-1.54293 0.562455,-2.28159 -0.747467,-1.06715 0.09848,-1.78862 0.96915,-0.82653 0.685511,0.75748 0.816094,1.97807 0.315241,2.94661 -0.405631,0.7844 -0.407084,0.89287 -0.01773,1.3231 0.615203,0.6798 0.949163,2.01134 0.593613,2.36688 -0.468868,0.46887 -0.68426,0.34717 -1.085608,-0.61339 z m 10.199758,12.64318 c 0.41703,-0.3774 0.64791,-0.40164 1.45782,-0.15308 0.7505,0.23034 1.15287,0.21573 1.828,-0.0663 1.11593,-0.46627 1.5025,-1.21951 1.39313,-2.71458 -0.0637,-0.87064 0.0216,-1.25764 0.30888,-1.40112 0.21829,-0.10902 0.74373,-0.36085 1.16765,-0.55962 2.33492,-1.09478 2.274,-4.94977 -0.0976,-6.17617 -1.05849,-0.54737 -1.01941,-1.10018 0.11117,-1.57257 1.67248,-0.6988 1.59031,-2.93431 -0.12855,-3.4976 l -0.92036,-0.30161 0.0942,-1.87958 c 0.0923,-1.84138 0.0757,-1.89813 -0.81784,-2.79165 -1.12126,-1.12126 -2.08838,-1.38945 -3.49372,-0.96885 -2.38346,0.71335 -2.36159,0.71472 -2.15476,-0.13471 0.45942,-1.8867 0.45545,-2.11729 -0.0472,-2.738 -0.62383,-0.77041 -1.93795,-0.84205 -2.70543,-0.14749 -0.48761,0.44128 -0.53258,0.8097 -0.53258,4.3636 0,3.7761 0.0176,3.89816 0.64757,4.48998 1.17494,1.1038 3.10863,0.5248 3.45084,-1.03328 0.21552,-0.98125 0.59672,-1.25111 1.08191,-0.76591 0.57415,0.57414 0.008,2.19137 -1.04915,2.99782 -0.93233,0.71113 -2.24725,0.8667 -3.45248,0.40847 l -0.67869,-0.25804 v 6.89002 c 0,4.66589 0.0979,7.07656 0.30321,7.46793 0.77109,1.4697 2.90696,1.74331 4.23396,0.54239 z m 0.32922,-4.7056 c -0.0793,-0.20652 0.0467,-0.6667 0.27991,-1.02262 0.48822,-0.74511 0.21959,-1.85484 -0.51746,-2.13767 -0.68048,-0.26112 -1.58174,-0.19922 -1.9123,0.13134 -0.3821,0.38209 -1.12904,0.10582 -1.12904,-0.41761 0,-0.73243 1.21023,-1.27651 2.44388,-1.09868 0.6204,0.0894 1.36612,0.15355 1.65717,0.14251 0.29104,-0.011 1.03502,-0.0386 1.65329,-0.0613 0.83048,-0.0305 1.27083,0.10547 1.68575,0.52039 0.3089,0.30889 0.48062,0.6927 0.38162,0.8529 -0.23064,0.37318 -1.01695,0.37561 -1.38827,0.004 -0.15785,-0.15785 -0.56669,-0.24714 -0.90855,-0.19844 -0.55803,0.0795 -0.61306,0.20491 -0.53843,1.22704 0.0527,0.72225 -0.072,1.37521 -0.3411,1.78594 -0.46996,0.71724 -1.14411,0.85141 -1.36647,0.27194 z"
       id="path6"
       sodipodi:nodetypes="csscssscssssssscccccccccccccccccscccccsscscccccccccccccsscsccscsccccsccccssscsscccccccccccccsssccssccccccssscssssscscsssccsssccscscscscssscssssssssssssssscscccscssscscsssscsssssscccsccsscccsscscsccccccsscsccscsccccssssccssccscccc" />
  </g>
</svg>
